<?xml version="1.0" encoding="UTF-8" standalone="no"?>
<!DOCTYPE svg PUBLIC "-//W3C//DTD SVG 1.1//EN" "http://www.w3.org/Graphics/SVG/1.1/DTD/svg11.dtd">
<svg width="100%" height="100%" viewBox="0 0 645 460" version="1.1" xmlns="http://www.w3.org/2000/svg" xmlns:xlink="http://www.w3.org/1999/xlink" xml:space="preserve" xmlns:serif="http://www.serif.com/" style="fill-rule:evenodd;clip-rule:evenodd;stroke-linejoin:round;stroke-miterlimit:2;">
    <g transform="matrix(1,0,0,1,-5.77587e-10,-9.00004)">
        <clipPath id="_clip1">
            <path d="M274.349,202.984C267.39,207.991 268.498,217.842 270.593,225C273.678,235.539 279.822,245.295 286.831,253.705C299.266,268.623 320.376,285.375 339.835,272.278C357.163,260.613 368.094,237.076 371.867,217.251C373.033,211.124 374.586,201.995 369.107,197.389C361.007,190.581 346.719,191.819 336.941,192.696C330.501,193.273 324.287,195.232 317.924,194.312C303.138,192.174 286.682,194.111 274.349,202.984Z" clip-rule="nonzero"/>
        </clipPath>
        <g clip-path="url(#_clip1)">
            <rect x="264" y="187" width="114" height="95" style="fill:rgb(255,86,120);"/>
        </g>
    </g>
    <g transform="matrix(1,0,0,1,-5.77587e-10,105.407)">
        <clipPath id="_clip2">
            <path d="M573.266,166.43C559.194,184.27 535.271,187.088 514.023,186.913C501.264,186.808 488.48,185.848 475.971,183.249C469.228,181.848 462.529,179.992 456.013,177.763C451.709,176.289 445.302,175.553 443.47,170.944C438.639,158.784 442.194,143.534 444.183,131.191C445.196,124.913 445.955,118.597 446.94,112.314C447.569,108.294 447.87,103.846 449.556,100.085C451.53,95.68 454.023,96.559 458.198,97.777C463.949,99.455 469.855,100.152 475.768,101.055C490.2,103.257 502.791,107.698 515.906,113.993C528.875,120.217 541.455,126.36 553.023,135.015C558.884,139.4 563.934,144.161 568.639,149.75C572.274,154.068 577.699,160.81 573.266,166.43ZM511.755,245.666C511.642,247.587 489.588,241.789 486.686,241.138C467.644,236.869 448.224,232.008 430.247,224.296C413.467,217.097 398.683,208.862 385.478,196.072C379.323,190.111 373.787,183.833 368.49,177.147C365.835,173.796 362.208,174.185 359.247,171.35C356.584,168.799 354.541,166.806 355.374,162.992C362.029,164.744 374.317,175.76 381.215,170.197C385.147,167.027 379.693,163.714 377.176,161.877C372.443,158.423 368.396,154.16 364.634,149.687C371.094,150.938 377.106,153.357 382.728,156.722C385.226,158.217 393.787,163.639 395.78,158.471C397.006,155.288 391.202,151.29 389.392,149.53C384.947,145.208 380.149,140.163 377.79,134.352C383.624,133 389.123,137.506 393.096,141.176C397.506,145.251 402.911,149.527 406.61,154.223C408.517,156.644 408.932,159.505 410.422,162.117C412.099,165.055 414.781,167.574 417.345,169.749C422.284,173.939 428.061,177.024 433.99,179.575C447.54,185.406 462.063,189.532 476.506,192.426C483.592,193.846 490.503,194.5 497.694,194.741C503.284,194.929 505.757,196.599 507.891,201.745C513.665,215.672 512.617,230.992 511.755,245.666ZM345.901,139.554C342.67,142.575 338.471,144.471 335.093,147.376C332.12,149.932 328.692,152.66 325.375,154.727C321.833,156.933 319.188,155.387 315.999,153.39C312.256,151.048 307.953,150.098 304.097,148.003C290.767,140.752 274.459,122.986 276.948,106.673C278.003,99.759 281.579,92.956 288.074,89.819C293.973,86.97 302.548,85.39 308.858,87.771C312.417,89.114 314.965,92.08 317.245,94.995C319.905,98.394 320.923,97.858 323.632,94.58C328.478,88.716 336.47,83.571 344.371,83.695C348.298,83.757 352.199,84.585 355.735,86.213C356.215,86.434 356.482,87.103 356.963,87.329C357.554,87.607 358.524,87.029 358.935,87.289C359.971,87.944 361.005,89.991 361.602,91.03C363.999,95.197 368.315,103.371 363.965,106.879C363.963,106.881 364.159,111.627 364.099,112.169C363.793,115 362.813,117.338 361.551,119.927C357.762,127.706 352.168,133.695 345.901,139.554ZM352.344,205.373C349.283,206.324 345.986,196.736 348.922,195.206C351.722,193.746 355.116,204.513 352.344,205.373ZM304.265,193.909C303.204,197.531 302.757,201.641 300.164,204.588C297.79,201.773 297.556,196.579 299.858,193.686C301.173,192.034 305.424,189.952 304.265,193.909ZM402.225,130.455C402.208,130.547 405.908,132.315 404.103,134.249C401.636,136.891 401.975,131.749 402.225,130.455ZM417.518,100.938C417.475,104.6 409.718,103.716 409.774,100.033C409.842,95.5 417.563,97.057 417.518,100.938ZM408.258,70.334C409.026,66.981 422.518,62.317 422.151,68.16C421.967,71.09 406.63,77.461 408.258,70.334ZM269.943,184.032C268.43,185.85 266.282,186.566 264.469,187.961C262.568,189.422 261.209,191.319 259.549,193.035C254.989,197.747 249.5,201.618 244.581,205.946C235.537,213.902 226.873,222.456 216.846,229.204C198.927,241.261 178.148,247.855 157.52,253.63C155.811,254.108 150.888,256.039 149.198,254.601C147.374,253.05 148.301,247.592 148.385,245.528C148.727,237.068 149.714,228.507 149.607,220.059C149.563,216.589 148.546,211.657 150.358,208.482C152.381,204.936 158.028,203.898 161.522,202.564C172.14,198.508 182.368,191.666 191.747,185.33C203.277,177.54 214.922,169.621 226.788,162.348C238.412,155.224 251.235,150.454 264.202,146.385C264.803,147.646 258.615,151.706 257.908,152.276C254.516,155.005 250.825,157.834 248.307,161.437C246.524,163.988 244.696,169.76 249.618,169.908C252.005,169.98 255.533,167.673 257.696,166.926C261.27,165.694 264.953,164.829 268.692,164.266C265.478,167.803 254.584,174.155 256.566,180.037C258.489,185.745 269.613,179.084 273.442,179.084C272.814,181.075 271.236,182.479 269.943,184.032ZM138.527,199.963C131.403,202.466 124.102,203.89 116.749,205.506C109.741,207.047 103.264,208.208 96.086,207.306C86.175,206.061 75.208,201.958 73.951,190.704C72.461,177.369 81.884,165.116 89.976,155.549C99.823,143.909 110.881,133.503 122.865,124.081C134.835,114.668 147.756,106.369 161.292,99.363C171.59,94.033 183.22,90.797 194.108,86.797C196.18,86.036 201.91,83.362 203.847,85.578C205.413,87.37 203.282,90.356 202.568,92.019C201.176,95.263 200.984,98.528 200.625,102.011C199.019,117.564 197.087,133.113 196.198,148.732C195.95,153.086 195.514,157.64 195.768,161.996C195.909,164.408 197.165,167.481 196.328,169.837C194.72,174.366 187.355,177.363 183.452,179.386C176.464,183.007 169.064,185.709 162.005,189.173C154.251,192.976 146.703,197.088 138.527,199.963ZM237.324,98.904C239.28,98.636 242.209,98.103 243.952,99.369C246.225,101.02 245.629,103.317 243.53,104.515C241.872,105.461 237.991,105.72 236.353,104.861C233.562,103.399 234.034,99.356 237.324,98.904ZM248.154,134.918C246.574,137.548 240.799,139.273 241.302,134.365C241.733,130.162 251.064,130.075 248.154,134.918ZM246.01,60.823C248.55,61.806 253.16,62.648 253.913,65.913C254.614,68.953 251.732,68.752 249.653,67.916C247.942,67.229 240.322,60.771 246.01,60.823ZM643.997,176.768C642.514,170.998 643.644,164.61 642.825,158.701C642.031,152.972 640.602,147.708 638.551,142.308C634.01,130.356 628.808,119.597 621.447,109.107C607.584,89.353 591.501,71.953 572.079,57.524C552.906,43.28 531.674,31.704 509.183,23.591C485.334,14.987 461.327,11.993 436.177,10.343C428.666,9.852 421.163,9.268 413.694,8.32C408.236,7.627 401.394,6.773 395.997,8.444C392.607,9.494 390.712,12.449 394.406,14.388C397.025,15.763 400.453,15.927 403.345,16.293C399.851,27.385 394.167,38.515 385.158,46.153C376.364,53.61 364.595,56.166 353.496,58.057C347.477,59.082 340.737,59.876 334.625,59.433C330.761,59.155 327.746,57.366 326.186,61.344C325.104,64.108 324.592,67.14 323.166,62.968C321.479,58.034 320.651,58.066 315.403,56.664C304.67,53.799 292.366,51.184 283.002,44.987C273.288,38.558 269.909,28.157 264.486,18.472C263.145,16.078 259.099,11.233 261.166,8.49C263.057,5.982 269.205,6.232 272.02,5.97C274.99,5.694 277.979,5.682 280.96,5.567C282.686,5.5 286.16,6.207 285.465,3.63C284.417,-0.255 273.187,0.243 270.399,0.179C265.213,0.063 259.955,0.183 254.795,0.753C229.211,3.581 203.397,8.81 178.639,15.782C130.605,29.309 84.084,54.235 49.03,90.144C15.381,124.612 4.721,181.973 25.407,225.984C36.157,248.857 59.487,258.253 82.102,265.842C94.031,269.844 106.663,272.975 119.343,272.22C125.429,271.857 131.203,270.22 137.138,268.986C139.726,268.448 142.671,267.589 145.33,267.806C147.342,267.97 149.275,269.816 151.163,268.836C152.503,268.139 153.085,266.14 154.723,265.289C156.688,264.267 159.072,263.898 161.195,263.383C167.097,261.95 172.811,259.627 178.579,257.722C184.544,255.752 190.173,253.215 195.897,250.65C198.787,249.354 205.475,244.087 207.358,247.937C208.216,249.695 207.851,253.085 208.06,254.928C208.426,258.152 208.857,261.368 209.327,264.579C210.364,271.646 211.605,278.684 212.877,285.713C215.173,298.396 218.131,310.538 223.077,322.468C227.026,331.994 230.494,342.792 237.827,350.37C241.029,353.677 245.397,355.166 249.988,354.127C255.211,352.944 257.811,348.203 260.982,344.369C267.958,335.933 279.475,329.469 290.11,327.142C303.134,324.293 315.82,328.46 328.251,332.003C341.4,335.75 354.786,339.32 367.692,343.824C379.719,348.022 392.705,354.221 405.748,353.682C417.123,353.212 427.747,343.96 435.95,336.908C444.189,329.825 454.49,319.455 466.337,320.289C472.219,320.704 477.58,323.539 483.309,324.692C489.6,325.958 496.293,326.138 502.689,326.61C510.63,327.195 528.394,325.126 531.331,315.58C531.767,314.163 531.77,311.247 529.898,310.68C528.177,310.16 527.298,312.171 525.667,312.079C522.349,311.892 519.756,306.11 517.933,303.872C510.577,294.836 500.487,288.096 492.232,279.932C482.911,270.716 474.954,259.549 467.93,248.535C471.106,247.71 474.531,249.08 477.604,249.73C481.338,250.521 484.976,251.476 488.656,252.488C492.712,253.605 496.825,254.371 500.941,255.222C504.012,255.856 508.088,256.047 510.86,257.586C513.279,258.931 514.63,260.374 517.634,260.764C520.689,261.16 523.825,260.826 526.894,260.805C535.195,260.749 543.478,260.595 551.74,259.718C580.931,256.619 611.876,244.279 629.429,219.789C634.204,213.127 638.05,205.748 640.48,197.917C642.377,191.804 645.648,183.188 643.997,176.768Z" clip-rule="nonzero"/>
        </clipPath>
        <g clip-path="url(#_clip2)">
            <rect x="9.846" y="-4.861" width="639.602" height="364.314"/>
        </g>
    </g>
    <g transform="matrix(1,0,0,1,-5.77587e-10,-330.315)">
        <clipPath id="_clip3">
            <path d="M370.199,330.321C377.87,330.43 385.061,332.703 392.209,335.288C398.495,337.561 405.197,339.663 410.28,344.199C419.422,352.359 421.804,365.87 423.3,377.429C425.166,391.853 418.956,403.955 413.729,417.004C408.841,429.209 399.868,439.096 389.203,446.63C383.615,450.577 377.44,452.959 370.979,455.048C364.416,457.169 358.06,460.011 351.038,460C340.375,459.985 326.723,454.923 322.181,444.424C320.113,439.643 322.127,438.785 326.265,441.383C332.269,445.153 338.056,449.22 345.071,450.892C358.676,454.136 374.972,449.111 386.902,442.48C398.827,435.852 406.833,425.894 412.184,413.495C417.583,400.986 419.68,388.66 417.598,375.174C415.834,363.746 412.324,353.308 402.02,347.104C379.774,333.714 349.803,334.792 330.021,352.194C327.308,354.58 324.626,356.902 321.83,359.18C320.053,360.627 317.96,362.365 318.218,364.869C318.439,367.013 323.014,375.28 317.505,372.741C313.039,370.682 310.613,366.657 305.203,366.158C299.446,365.627 292.578,370.048 290.856,375.611C289.213,380.92 292.142,388.182 296.731,391.227C299.572,393.113 302.699,392.822 305.926,392.746C307.527,392.708 311.985,392.188 313.045,393.88C314.92,396.872 308.305,400.017 306.17,400.679C300.975,402.29 294.835,400.394 291.848,395.76C288.812,391.048 286.735,385.595 286.316,379.982C285.916,374.604 287.138,369.159 290.312,364.743C293.689,360.047 300.572,354.782 306.743,356.413C309.421,357.121 311.573,359.887 314.201,360.412C315.86,360.743 315.162,360.98 316.537,359.751C317.409,358.972 318.234,357.533 319.039,356.609C323.67,351.295 328.25,345.624 333.918,341.371C344.081,333.744 357.59,330.142 370.199,330.321ZM342.093,435.675C343.296,432.858 345.504,437.882 346.156,438.722C347.449,440.384 350.488,441.676 350.357,444.127C350.141,448.173 344.622,447.423 342.782,445.312C340.688,442.909 340.907,438.456 342.093,435.675ZM381.298,416.517C384.275,421.154 380.647,426.159 378.293,430.262C376.043,434.186 373.953,438.621 371.333,442.31C366.984,448.434 357.522,441.809 357.241,435.515C357.026,430.696 360.441,432.794 362.633,434.593C364.889,436.447 365.958,436.909 368.323,434.884C373.081,430.81 375.219,423.997 378.508,418.839C379.16,417.816 380.342,417.201 381.298,416.517ZM389.785,418.008C390.553,420.25 388.942,426.192 393.419,425.598C395.893,425.27 396.421,421.722 397.721,420.174C402.095,414.969 400.754,424.813 399.611,427.277C397.092,432.708 390.042,436.449 386.545,429.56C385.245,426.997 385.25,423.763 385.911,421.008C386.271,419.508 388.368,413.868 389.785,418.008ZM349.863,407.389C349.466,410.005 347.006,415.217 350.01,417.089C352.653,418.736 357.256,415.159 359.292,413.665C361.407,412.113 366.2,407.66 366.388,413.201C366.484,416.026 363.655,419.415 361.636,421.042C357.329,424.513 348.378,427.626 345.204,421.094C343.475,417.535 344.421,412.469 345.564,408.884C346.491,405.977 350.82,401.07 349.863,407.389ZM406.358,393.066C408.111,395.1 412.265,399.658 410.006,402.555C407.365,405.941 403.073,399.728 401.382,397.999C399.857,396.441 396.651,392.005 398.018,389.652C400.282,385.759 404.818,391.28 406.358,393.066ZM378.806,384.306C384.536,388.036 377.002,390.723 373.739,391.056C369.789,391.459 364.739,391.726 361.111,389.789C355.969,387.044 357.682,382.896 362.667,381.903C367.778,380.886 374.359,381.41 378.806,384.306ZM304.318,372.43C308.532,373.25 313.344,374.316 314.779,378.907C316.261,383.652 314.132,385.226 309.828,384.158C305.846,383.169 299.898,382.175 297.647,378.287C294.957,373.643 300.411,371.671 304.318,372.43Z" clip-rule="nonzero"/>
        </clipPath>
        <g clip-path="url(#_clip3)">
            <rect x="281.243" y="325.315" width="147.397" height="139.685"/>
        </g>
    </g>
    <g transform="matrix(1,0,0,1,-5.77587e-10,-172.261)">
        <clipPath id="_clip4">
            <path d="M72.474,316.326C71.06,320.889 63.903,323.916 60.334,326.69C47.851,336.396 35.652,346.501 24.366,357.578C18.509,363.328 14.075,370.282 8.995,376.677C7.756,378.237 5.56,381.733 3.129,381.405C0.462,381.046 -0.077,376.455 0.008,374.45C0.3,367.614 6.547,361.011 11.003,356.304C16.015,351.01 21.373,345.852 26.845,341.032C32.87,335.726 39.408,331.165 46.071,326.699C52.614,322.315 58.887,317.249 65.691,313.277C68.896,311.407 74.218,310.695 72.474,316.326ZM508.842,272.985C514.053,273.149 519.137,274.857 524.051,276.443C534.861,279.931 545.157,284.771 555.309,289.829C573.107,298.695 590.235,309.422 605.936,321.619C609.218,324.168 612.582,326.234 616.151,328.318C618.435,329.654 621.692,331.283 622.572,334.004C624.807,340.922 613.525,333.979 611.924,332.986L609.672,331.59C576.266,310.899 542.9,290.795 505.114,278.929C503.101,278.297 502.475,276.503 503.53,274.724C504.675,272.796 506.906,272.924 508.842,272.985ZM70.954,287.463C70.712,289.569 68.325,290.048 66.715,290.724C60.708,293.246 54.55,295.397 48.559,297.96C37.44,302.718 27.228,309.623 15.622,313.234C12.97,314.061 12.578,311.385 13.288,309.565C14.079,307.533 16.455,306.107 18.173,304.932C23.129,301.538 28.749,299.099 34.253,296.742C39.709,294.404 45.327,292.635 50.921,290.675C56.12,288.853 62.155,285.462 67.738,285.211L67.982,285.199C69.759,285.11 71.235,284.99 70.954,287.463ZM518.326,255.465C513.014,253.971 518.033,250.61 521.19,250.846C524.712,251.11 528.116,252.772 531.456,253.774C541.668,256.839 551.134,260.19 560.674,264.947C562.097,265.657 568.365,269.023 564.219,270.514C561.345,271.547 554.634,267.115 552.167,266.052C541.326,261.38 529.677,258.655 518.326,255.465Z" clip-rule="nonzero"/>
        </clipPath>
        <g clip-path="url(#_clip4)">
            <rect x="-5" y="245.835" width="632.864" height="140.592"/>
        </g>
    </g>
    <g transform="matrix(1,0,0,1,-5.77587e-10,-252.504)">
        <clipPath id="_clip5">
            <path d="M306.553,346.588C307.217,344.641 315.43,323.356 312.215,322.714C308.81,322.033 304.259,334.383 303.271,336.614C299.623,344.854 297.463,353.696 295.77,362.535C294.591,368.69 293.555,374.995 293.968,381.287C294.286,386.122 296.284,386.854 299.577,389.818C299.577,375.13 301.811,360.49 306.553,346.588Z" clip-rule="nonzero"/>
        </clipPath>
        <g clip-path="url(#_clip5)">
            <rect x="288.876" y="317.687" width="29.083" height="77.131"/>
        </g>
    </g>
</svg>
