<?xml version="1.0" encoding="UTF-8" standalone="no"?>
<!DOCTYPE svg PUBLIC "-//W3C//DTD SVG 1.1//EN" "http://www.w3.org/Graphics/SVG/1.1/DTD/svg11.dtd">
<svg width="100%" height="100%" viewBox="0 0 36 36" version="1.1" xmlns="http://www.w3.org/2000/svg" xmlns:xlink="http://www.w3.org/1999/xlink" xml:space="preserve" xmlns:serif="http://www.serif.com/" style="fill-rule:evenodd;clip-rule:evenodd;stroke-linejoin:round;stroke-miterlimit:2;">
    <path d="M18.041,1.977C25.125,1.977 30.892,7.744 30.892,14.829C30.892,20.348 27.268,23.891 23.643,27.516C21.748,29.41 19.853,31.306 18.041,33.2C16.145,31.306 14.333,29.41 12.438,27.516C8.731,23.891 5.189,20.348 5.189,14.829C5.189,7.744 10.956,1.977 18.041,1.977Z" style="fill:white;"/>
    <g transform="matrix(0.36,0,0,0.36,-7.10543e-15,0)">
        <path d="M50.113,0C72.769,0 91.074,18.535 91.074,41.191C91.074,58.812 80.547,69.336 69.562,80.32C62.925,86.726 56.519,93.363 50.113,100C43.707,93.363 37.297,86.727 30.664,80.32C19.68,69.336 8.926,58.808 8.926,41.191C8.926,18.535 27.461,-0 50.117,-0L50.113,0ZM50.113,5.492C30.433,5.492 14.414,21.512 14.414,41.191C14.414,56.523 24.254,66.363 34.551,76.433C39.813,81.695 44.848,86.96 50.113,92.222C55.148,86.961 60.41,81.695 65.675,76.433C75.745,66.363 85.812,56.523 85.812,41.191C85.812,21.511 69.792,5.492 50.113,5.492Z" style="fill:rgb(250,205,0);fill-rule:nonzero;"/>
    </g>
    <g transform="matrix(0.0351562,0,0,0.0351562,18,13.528)">
        <g transform="matrix(1,0,0,1,-224,-256)">
            <path d="M352,128C352,57.42 294.579,0 224,0C153.42,0 96,57.42 96,128L0,128L0,432C0,476.183 35.817,512 80,512L368,512C412.183,512 448,476.183 448,432L448,128L352,128ZM224,48C268.112,48 304,83.888 304,128L144,128C144,83.888 179.888,48 224,48ZM400,432C400,449.645 385.645,464 368,464L80,464C62.355,464 48,449.645 48,432L48,176L96,176L96,216C96,229.255 106.745,240 120,240C133.255,240 144,229.255 144,216L144,176L304,176L304,216C304,229.255 314.745,240 328,240C341.255,240 352,229.255 352,216L352,176L400,176L400,432Z" style="fill-rule:nonzero;"/>
        </g>
    </g>
</svg>
