<?xml version="1.0" encoding="UTF-8" standalone="no"?>
<!DOCTYPE svg PUBLIC "-//W3C//DTD SVG 1.1//EN" "http://www.w3.org/Graphics/SVG/1.1/DTD/svg11.dtd">
<svg width="100%" height="100%" viewBox="0 0 36 36" version="1.1" xmlns="http://www.w3.org/2000/svg" xmlns:xlink="http://www.w3.org/1999/xlink" xml:space="preserve" xmlns:serif="http://www.serif.com/" style="fill-rule:evenodd;clip-rule:evenodd;stroke-linejoin:round;stroke-miterlimit:2;">
    <path d="M18.041,1.977C25.125,1.977 30.892,7.744 30.892,14.829C30.892,20.348 27.268,23.891 23.643,27.516C21.748,29.41 19.853,31.306 18.041,33.2C16.145,31.306 14.333,29.41 12.438,27.516C8.731,23.891 5.189,20.348 5.189,14.829C5.189,7.744 10.956,1.977 18.041,1.977Z" style="fill:white;"/>
    <g transform="matrix(0.36,0,0,0.36,-7.10543e-15,0)">
        <path d="M50.113,0C72.769,0 91.074,18.535 91.074,41.191C91.074,58.812 80.547,69.336 69.562,80.32C62.925,86.726 56.519,93.363 50.113,100C43.707,93.363 37.297,86.727 30.664,80.32C19.68,69.336 8.926,58.808 8.926,41.191C8.926,18.535 27.461,-0 50.117,-0L50.113,0ZM50.113,5.492C30.433,5.492 14.414,21.512 14.414,41.191C14.414,56.523 24.254,66.363 34.551,76.433C39.813,81.695 44.848,86.96 50.113,92.222C55.148,86.961 60.41,81.695 65.675,76.433C75.745,66.363 85.812,56.523 85.812,41.191C85.812,21.511 69.792,5.492 50.113,5.492Z" style="fill-rule:nonzero;"/>
    </g>
    <g transform="matrix(0.0325192,0,0,0.0325192,18,13.9431)">
        <g transform="matrix(1,0,0,1,-320,-256)">
            <path d="M544,192L528,192L419.21,56.02C407.075,40.848 388.668,32 369.24,32L155.33,32C129.16,32 105.63,47.93 95.91,72.23L48,192L48,194.26C20.44,201.4 0,226.21 0,256L0,368C0,376.84 7.16,384 16,384L64,384C64,437.02 106.98,480 160,480C213.02,480 256,437.02 256,384L384,384C384,437.02 426.98,480 480,480C533.02,480 576,437.02 576,384L624,384C632.84,384 640,376.84 640,368L640,288C640,234.98 597.02,192 544,192ZM280,80L369.24,80C374.13,80 378.68,82.19 381.73,86L466.53,192L280,192L280,80ZM140.47,90.06C142.92,83.95 148.75,80 155.33,80L232,80L232,192L99.7,192L140.47,90.06ZM160,432C133.49,432 112,410.51 112,384C112,357.49 133.49,336 160,336C186.51,336 208,357.49 208,384C208,410.51 186.51,432 160,432ZM480,432C453.49,432 432,410.51 432,384C432,357.49 453.49,336 480,336C506.51,336 528,357.49 528,384C528,410.51 506.51,432 480,432ZM592,336L562.69,336C546.06,307.43 515.45,288 480,288C444.55,288 413.95,307.43 397.31,336L242.69,336C226.06,307.43 195.45,288 160,288C124.55,288 93.95,307.43 77.31,336L48,336L48,256C48,247.18 55.18,240 64,240L544,240C570.47,240 592,261.53 592,288L592,336Z" style="fill-rule:nonzero;"/>
        </g>
    </g>
</svg>
