<?xml version="1.0" encoding="UTF-8" standalone="no"?>
<!DOCTYPE svg PUBLIC "-//W3C//DTD SVG 1.1//EN" "http://www.w3.org/Graphics/SVG/1.1/DTD/svg11.dtd">
<svg width="100%" height="100%" viewBox="0 0 36 36" version="1.1" xmlns="http://www.w3.org/2000/svg" xmlns:xlink="http://www.w3.org/1999/xlink" xml:space="preserve" xmlns:serif="http://www.serif.com/" style="fill-rule:evenodd;clip-rule:evenodd;stroke-linejoin:round;stroke-miterlimit:2;">
    <path d="M18.041,1.977C25.125,1.977 30.892,7.744 30.892,14.829C30.892,20.348 27.268,23.891 23.643,27.516C21.748,29.41 19.853,31.306 18.041,33.2C16.145,31.306 14.333,29.41 12.438,27.516C8.731,23.891 5.189,20.348 5.189,14.829C5.189,7.744 10.956,1.977 18.041,1.977Z" style="fill:white;"/>
    <g transform="matrix(0.36,0,0,0.36,-7.10543e-15,0)">
        <path d="M50.113,0C72.769,0 91.074,18.535 91.074,41.191C91.074,58.812 80.547,69.336 69.562,80.32C62.925,86.726 56.519,93.363 50.113,100C43.707,93.363 37.297,86.727 30.664,80.32C19.68,69.336 8.926,58.808 8.926,41.191C8.926,18.535 27.461,-0 50.117,-0L50.113,0ZM50.113,5.492C30.433,5.492 14.414,21.512 14.414,41.191C14.414,56.523 24.254,66.363 34.551,76.433C39.813,81.695 44.848,86.96 50.113,92.222C55.148,86.961 60.41,81.695 65.675,76.433C75.745,66.363 85.812,56.523 85.812,41.191C85.812,21.511 69.792,5.492 50.113,5.492Z" style="fill:rgb(250,205,0);fill-rule:nonzero;"/>
    </g>
    <g transform="matrix(0.0336912,0,0,0.0336912,18,13.528)">
        <g transform="matrix(1,0,0,1,-288,-256)">
            <clipPath id="_clip1">
                <rect x="0" y="0" width="576" height="512"/>
            </clipPath>
            <g clip-path="url(#_clip1)">
                <path d="M231.3,191.8C216,191.8 200.3,196.6 186.4,208.3C148.7,240 154.3,291.6 181.1,318.9L268.9,408.3C281.6,421.2 299.2,415.8 306.6,408.3L394.4,318.9C421.2,291.6 426.8,240 389.1,208.3C375.2,196.6 359.4,191.8 344.2,191.8C322,191.8 300.9,201.8 287.8,215.1C274.6,201.8 253.5,191.8 231.3,191.8ZM358.1,245C376.4,260.4 364,281.1 360.1,285.2L287.7,358.8L215.4,285.2C211.4,281.1 199,260.4 217.4,245C231,233.5 248.7,243.9 253.5,248.8L287.8,283.7L322.1,248.8C326.7,243.9 344.4,233.5 358.1,245ZM573,224L511.9,171.8L511.9,72C511.9,67.6 508.3,64 503.9,64L471.9,64C467.5,64 463.9,67.6 463.9,72L463.9,132.5L313.2,9.1C298.5,-3 277.2,-3 262.5,9.1L2.9,224.3C-0.5,227.1 -1,232.1 1.8,235.6L22.1,260.4C24.9,263.8 29.9,264.3 33.4,261.5L63.7,233.8L63.7,496C63.7,504.8 71,512 79.8,512L496,512C504.8,512 512,504.8 512,496L512,233.8L542.8,261.1C546.2,263.9 551.3,263.4 554.1,260L574.4,235.2C577,231.8 576.4,226.8 573,224ZM463.8,464L111.7,464L111.7,194.5L282.7,54.5C285.6,52.1 289.9,52.1 292.8,54.5L463.8,194.5L463.8,464Z" style="fill-rule:nonzero;"/>
            </g>
        </g>
    </g>
</svg>
