<?xml version="1.0" encoding="UTF-8" standalone="no"?>
<!DOCTYPE svg PUBLIC "-//W3C//DTD SVG 1.1//EN" "http://www.w3.org/Graphics/SVG/1.1/DTD/svg11.dtd">
<svg width="100%" height="100%" viewBox="0 0 36 36" version="1.1" xmlns="http://www.w3.org/2000/svg" xmlns:xlink="http://www.w3.org/1999/xlink" xml:space="preserve" xmlns:serif="http://www.serif.com/" style="fill-rule:evenodd;clip-rule:evenodd;stroke-linejoin:round;stroke-miterlimit:2;">
    <path d="M18.041,1.977C25.125,1.977 30.892,7.744 30.892,14.829C30.892,20.348 27.268,23.891 23.643,27.516C21.748,29.41 19.853,31.306 18.041,33.2C16.145,31.306 14.333,29.41 12.438,27.516C8.731,23.891 5.189,20.348 5.189,14.829C5.189,7.744 10.956,1.977 18.041,1.977Z" style="fill:white;"/>
    <g transform="matrix(0.36,0,0,0.36,-7.10543e-15,0)">
        <path d="M50.113,0C72.769,0 91.074,18.535 91.074,41.191C91.074,58.812 80.547,69.336 69.562,80.32C62.925,86.726 56.519,93.363 50.113,100C43.707,93.363 37.297,86.727 30.664,80.32C19.68,69.336 8.926,58.808 8.926,41.191C8.926,18.535 27.461,-0 50.117,-0L50.113,0ZM50.113,5.492C30.433,5.492 14.414,21.512 14.414,41.191C14.414,56.523 24.254,66.363 34.551,76.433C39.813,81.695 44.848,86.96 50.113,92.222C55.148,86.961 60.41,81.695 65.675,76.433C75.745,66.363 85.812,56.523 85.812,41.191C85.812,21.511 69.792,5.492 50.113,5.492Z" style="fill:rgb(250,205,0);fill-rule:nonzero;"/>
    </g>
    <g transform="matrix(0.0351562,0,0,0.0351562,9.04068,6.11009)">
        <path d="M256,256C238.3,256 224,270.3 224,288C224,305.7 238.3,320 256,320C273.7,320 288,305.7 288,288C288,270.3 273.7,256 256,256ZM448,0L64,0C28.7,0 0,28.7 0,64L0,352C0,387.3 28.7,416 64,416L160,416L160,500C160,507.1 165.8,512 172,512C174.4,512 176.9,511.3 179.1,509.6L304,416L448,416C483.3,416 512,387.3 512,352L512,64C512,28.7 483.3,0 448,0ZM464,352C464,360.8 456.8,368 448,368L288,368L208,428L208,368L64,368C55.2,368 48,360.8 48,352L48,64C48,55.2 55.2,48 64,48L448,48C456.8,48 464,55.2 464,64L464,352ZM284.7,96L227.3,96C217.3,96 209.7,105.1 211.6,114.9L229.6,210.9C231,218.5 237.6,224 245.3,224L266.7,224C274.4,224 281,218.5 282.4,210.9L300.4,114.9C302.3,105.1 294.7,96 284.7,96Z" style="fill:rgb(162,71,4);fill-rule:nonzero;"/>
    </g>
</svg>
